<?xml version="1.0" encoding="UTF-8" standalone="no"?>
<svg width="14px" height="14px" viewBox="0 0 14 14" version="1.1" xmlns="http://www.w3.org/2000/svg" xmlns:xlink="http://www.w3.org/1999/xlink">
    <!-- Generator: Sketch 41.2 (35397) - http://www.bohemiancoding.com/sketch -->
    <title>Shape</title>
    <desc>Created with Sketch.</desc>
    <defs></defs>
    <g id="Page-1" stroke="none" stroke-width="1" fill="none" fill-rule="evenodd">
        <g id="电子审核平台UI规范" transform="translate(-1911.000000, -7032.000000)" fill="#FFFFFF">
            <g id="head-copy-2" transform="translate(587.000000, 7009.000000)">
                <g id="用户" transform="translate(1324.000000, 23.000000)">
                    <path d="M13.4450769,4.27535544 C13.0928236,3.44256082 12.5885792,2.69464121 11.9463484,2.05239209 C11.3041177,1.41014297 10.5561797,0.905898557 9.7233851,0.553645186 C8.86112715,0.188932929 7.94522422,0.00401877279 7.00112776,0.00401877279 C6.05703131,0.00401877279 5.14114678,0.188932929 4.27887043,0.553645186 C3.44607581,0.905898557 2.6981378,1.41014297 2.05590708,2.05239209 C1.41365796,2.69464121 0.909413546,3.44256082 0.557160175,4.27535544 C0.192447918,5.13761339 0.00753376123,6.05351632 0.00753376123,6.99759437 C0.00753376123,7.94169082 0.192447918,8.85757535 0.557160175,9.71985171 C0.909413546,10.5526647 1.41365796,11.3005843 2.05590708,11.9428335 C2.6981562,12.5850642 3.44607581,13.089327 4.27887043,13.441562 C5.14112838,13.8062558 6.05703131,13.9911884 7.00110936,13.9911884 C7.94520581,13.9911884 8.86109034,13.8062558 9.7233667,13.441562 C10.5561613,13.0893086 11.3040993,12.5850642 11.94633,11.9428335 C12.5885608,11.3005843 13.0928236,10.5526647 13.4450585,9.71985171 C13.8097708,8.85759376 13.994685,7.94169082 13.994685,6.99759437 C13.9947218,6.05353473 13.8098076,5.13763179 13.4450769,4.27535544 Z M7.0138811,7.81088173 C5.64467348,7.81088173 4.53073499,6.69683282 4.53073499,5.32747798 C4.53073499,3.95827036 5.64467348,2.84433187 7.0138811,2.84433187 C8.38336477,2.84433187 9.49750568,3.95827036 9.49750568,5.32747798 C9.49750568,6.69683282 8.38336477,7.81088173 7.0138811,7.81088173 Z M4.33441093,9.44522253 C5.09985027,8.83716634 6.02239671,8.51575653 7.00228716,8.51575653 C7.98081577,8.51575653 8.90233165,8.83646702 9.6672189,9.44319819 C10.3963858,10.0216438 10.9238549,10.8304408 11.1565618,11.7251618 C10.6480847,12.1731296 10.0745711,12.533738 9.45092749,12.7974909 C8.67538485,13.1255627 7.85114767,13.2919081 7.00112776,13.2919081 C6.15108946,13.2919081 5.32685227,13.1255811 4.55129123,12.7975093 C3.92840216,12.5340508 3.35529341,12.1737737 2.84709233,11.7263212 C3.07948644,10.8321891 3.6061274,10.0237786 4.33441093,9.44522253 Z M10.1018629,8.89532007 C9.67018179,8.55287554 9.18903324,8.28615969 8.67181465,8.10260736 C8.65114799,8.09526453 8.63020529,8.08799532 8.60904175,8.08083652 C9.05032922,7.82442639 9.42492393,7.46529027 9.70074931,7.03213696 C10.0252876,6.52250044 10.1968228,5.93304976 10.1968228,5.32749638 C10.1968228,3.5726522 8.76894612,2.14497799 7.01384429,2.14497799 C5.25900011,2.14497799 3.83132591,3.5726522 3.83132591,5.32749638 C3.83132591,5.93126466 4.00192246,6.51922469 4.32463889,7.02786744 C4.59878959,7.45995338 4.97130475,7.81881345 5.41027344,8.07575727 C5.38349696,8.08473797 5.35692291,8.09392111 5.3306249,8.10326987 C4.81279901,8.28726388 4.331264,8.55453182 3.8993805,8.89762046 C3.16461909,9.48131097 2.59627674,10.2827835 2.28664491,11.1677141 C1.83238326,10.6553171 1.46759739,10.0773316 1.20117599,9.4474493 C0.87312267,8.67185146 0.706795625,7.84761427 0.706795625,6.99763118 C0.706795625,6.14762968 0.873141073,5.32337409 1.20117599,4.54781305 C1.51818746,3.79834758 1.97209945,3.12514448 2.55034265,2.54691968 C3.12862266,1.96865807 3.80180736,1.51472768 4.55123603,1.19775302 C5.32683387,0.869699697 6.15108946,0.703372652 7.00107255,0.703372652 C7.85107405,0.703372652 8.67531124,0.8697181 9.45087228,1.19775302 C10.200393,1.51476449 10.8735961,1.96869488 11.4518025,2.54691968 C12.0300089,3.12512608 12.4839392,3.79832918 12.8009691,4.54781305 C13.129004,5.32339249 13.2953495,6.14762968 13.2953495,6.99763118 C13.2953495,7.84765108 13.1290224,8.67190667 12.8009507,9.44746771 C12.5348422,10.0767427 12.1704796,10.6542497 11.71677,11.1663155 C11.4066965,10.280704 10.837618,9.47895538 10.1018629,8.89532007 Z" id="Shape"></path>
                </g>
            </g>
        </g>
    </g>
</svg>