<?xml version="1.0" standalone="no"?><!DOCTYPE svg PUBLIC "-//W3C//DTD SVG 1.1//EN" "http://www.w3.org/Graphics/SVG/1.1/DTD/svg11.dtd"><svg t="1494578596716" class="icon" style="" viewBox="0 0 1024 1024" version="1.1" xmlns="http://www.w3.org/2000/svg" p-id="3474" xmlns:xlink="http://www.w3.org/1999/xlink" width="32" height="32"><defs><style type="text/css"></style></defs><path d="M706.432 195.136c-14.656-9.536-34.56-5.44-44.224 9.408-9.536 14.848-5.376 34.688 9.472 44.288C772.032 314.048 832 424.448 832 544.192c0 193.92-157.504 351.68-351.04 351.68s-351.04-157.76-351.04-351.68c0-119.68 60.032-230.144 160.448-295.296 14.848-9.6 19.072-29.504 9.472-44.352C290.112 189.632 270.336 185.408 255.552 195.072 136.768 272.192 65.856 402.688 65.856 544.192 65.856 773.504 252.032 960 480.96 960S896 773.504 896 544.192C896 402.624 825.152 272.128 706.432 195.136zM480.96 572.16c17.664 0 32-14.656 32-32.832l0-380.8c0-18.112-14.336-32.768-32-32.768s-32 14.656-32 32.768l0 380.8C448.96 557.504 463.232 572.16 480.96 572.16z" p-id="3475" fill="#cdcdcd"></path></svg>