<?xml version="1.0" encoding="UTF-8" standalone="no"?>
<svg   viewBox="0 0 16 16" version="1.1" xmlns="http://www.w3.org/2000/svg" xmlns:xlink="http://www.w3.org/1999/xlink">

  <path d="M2.18376598,2.45009751 C1.9755753,2.65821885 1.9755753,2.99560563 2.18376598,3.20379632 L2.93729144,3.95732178 C3.14548212,4.16546046 3.48271289,4.16546046 3.69092091,3.95732178 C3.89900758,3.74930444 3.89900758,3.411987 3.69092091,3.20379632 L2.93729144,2.45009751 C2.72920477,2.2419935 2.39166197,2.2419935 2.18376598,2.45009751 L2.18376598,2.45009751 Z M12.3090618,3.20379632 C12.1009404,3.41196966 12.1009404,3.74930444 12.3090618,3.95732178 C12.5169404,4.16546046 12.8544139,4.16546046 13.0626219,3.95732178 L13.8160953,3.20379632 C14.024338,2.99562297 14.024338,2.65823619 13.8160953,2.45009751 C13.6080433,2.24208017 13.2707432,2.24208017 13.0626219,2.45009751 L12.3090618,3.20379632 L12.3090618,3.20379632 Z M0.539267606,6.66766631 C0.244957746,6.66766631 0.00632719393,6.90626219 0.00632719393,7.20055471 C0.00632719393,7.49491658 0.244957746,7.73347779 0.539267606,7.73347779 L1.60507909,7.73347779 C1.89938895,7.73347779 2.13793283,7.49491658 2.13793283,7.20055471 C2.13793283,6.90626219 1.89938895,6.66766631 1.60507909,6.66766631 L0.539267606,6.66766631 L0.539267606,6.66766631 Z M14.3948516,6.66766631 C14.1005764,6.66766631 13.8619285,6.90626219 13.8619285,7.20055471 C13.8619285,7.49491658 14.1005937,7.73347779 14.3948516,7.73347779 L15.4606631,7.73347779 C15.7549209,7.73347779 15.9936555,7.49491658 15.9936555,7.20055471 C15.9936728,6.90626219 15.7549209,6.66766631 15.4606631,6.66766631 L14.3948516,6.66766631 L14.3948516,6.66766631 Z M7.46707692,1.60500975 C7.46707692,1.89933694 7.70560347,2.13786349 7.99989599,2.13786349 C8.29418852,2.13786349 8.53290574,1.89933694 8.53290574,1.60500975 L8.53290574,0.539232936 C8.53290574,0.244923077 8.29418852,0.00630985916 7.99989599,0.00630985916 C7.70560347,0.00630985916 7.46707692,0.244940412 7.46707692,0.539232936 L7.46707692,1.60500975 L7.46707692,1.60500975 Z M7.99989599,4.26957313 C10.060221,4.26957313 11.7303402,5.93974431 11.7303402,7.99991333 C11.7303402,10.0601517 10.0602037,11.7303575 7.99989599,11.7303575 C5.9396403,11.7303922 4.26959047,10.0601517 4.26959047,7.99991333 C4.26959047,5.93974431 5.9396403,4.26957313 7.99989599,4.26957313 L7.99989599,4.26957313 Z M7.99989599,12.796325 C10.6489101,12.796325 12.7961343,10.6489794 12.7961343,7.99991333 C12.7961343,5.35096858 10.6489274,3.20377898 7.99989599,3.20377898 C5.35100325,3.20379632 3.20381365,5.35100325 3.20381365,7.99991333 C3.20381365,10.6489794 5.35102059,12.796325 7.99989599,12.796325 L7.99989599,12.796325 Z M7.46707692,15.9937421 L8.53290574,15.9937421 C8.82723294,15.9937421 9.06584615,15.7549382 9.06584615,15.4608191 C9.06584615,15.1663532 8.8272156,14.9278787 8.53290574,14.9278787 L7.46707692,14.9278787 C7.1727844,14.9278613 6.93413651,15.1663359 6.93413651,15.4608191 C6.93413651,15.7549209 7.17276706,15.9937421 7.46707692,15.9937421 L7.46707692,15.9937421 Z M6.40121343,14.3950076 L9.59868256,14.3950076 C9.89299242,14.3950076 10.1316056,14.1562037 10.1316056,13.8621192 C10.1316056,13.5675666 9.89297508,13.3291094 9.59868256,13.3291094 L6.40123077,13.3291094 C6.10692091,13.3290921 5.8683597,13.5675666 5.8683597,13.8621192 C5.8683597,14.1561863 6.10692091,14.3950076 6.40121343,14.3950076 L6.40121343,14.3950076 Z"  ></path>

</svg>
