<?xml version="1.0" standalone="no"?>
<!DOCTYPE svg PUBLIC "-//W3C//DTD SVG 20010904//EN"
 "http://www.w3.org/TR/2001/REC-SVG-20010904/DTD/svg10.dtd">
<svg version="1.0" xmlns="http://www.w3.org/2000/svg"
 width="256.000000pt" height="256.000000pt" viewBox="0 0 256.000000 256.000000"
 preserveAspectRatio="xMidYMid meet">
<metadata>
Created by potrace 1.11, written by Peter Selinger 2001-2013
</metadata>
<g transform="translate(0.000000,256.000000) scale(0.100000,-0.100000)"
fill="#000000" stroke="none">
<path d="M630 2235 l0 -25 180 0 180 0 0 -93 0 -94 145 -71 145 -71 145 71
145 71 0 94 0 93 166 0 165 0 -5 -102 c-2 -57 -5 -118 -5 -135 l0 -32 -61 2
-60 2 5 30 c4 17 26 69 49 118 39 79 41 87 22 81 -110 -34 -311 -195 -396
-319 -47 -69 -105 -191 -129 -271 -30 -102 -26 -107 16 -23 42 86 167 218 245
259 53 28 71 23 128 -33 159 -155 51 -429 -169 -431 -76 0 -126 19 -179 68
-31 28 -41 34 -33 18 10 -19 8 -35 -13 -96 -15 -41 -26 -84 -26 -95 0 -12 -4
-21 -10 -21 -5 0 -10 9 -10 21 0 11 -12 55 -26 97 -22 64 -25 79 -14 96 7 12
-7 2 -32 -20 -53 -49 -103 -68 -179 -68 -220 2 -328 276 -169 431 57 56 75 61
128 33 78 -41 203 -173 245 -259 43 -85 45 -83 16 19 -22 82 -79 202 -129 275
-85 124 -286 285 -396 319 -19 6 -17 -2 22 -81 23 -49 45 -101 49 -118 l5 -30
-60 -2 c-34 -1 -80 -8 -103 -15 l-42 -12 85 -7 c47 -4 107 -12 134 -19 45 -12
47 -14 30 -27 -10 -7 -38 -32 -61 -55 -117 -113 -107 -314 20 -424 l45 -39
-44 -49 c-24 -26 -62 -85 -84 -130 -108 -218 -65 -470 110 -647 39 -39 70 -75
70 -80 0 -5 -125 -9 -305 -9 l-305 0 0 -42 c0 -24 -3 -60 -6 -81 l-7 -37 376
0 375 0 84 -63 c46 -34 104 -73 131 -87 l47 -25 48 25 c26 14 84 53 130 87
l84 63 369 0 369 0 0 80 0 80 -305 0 c-180 0 -305 4 -305 9 0 5 31 41 70 80
175 177 218 429 110 647 -22 45 -60 104 -84 130 l-44 49 45 39 c127 110 137
311 20 424 -23 23 -51 48 -61 56 -18 12 -14 15 52 30 102 23 114 22 110 -11
-2 -19 2 -27 15 -29 13 -2 17 5 17 27 0 25 4 29 28 30 l27 1 -28 11 c-24 10
-28 16 -25 44 1 17 -1 35 -5 39 -11 11 -8 204 3 204 6 0 10 11 10 25 l0 25
-650 0 -650 0 0 -25z m743 -1100 c81 -21 127 -47 182 -102 65 -65 106 -155
113 -245 9 -123 -39 -318 -78 -318 -10 0 -22 -4 -25 -10 -4 -6 -13 -5 -25 2
-14 9 -22 9 -33 -1 -10 -8 -17 -9 -22 -1 -11 18 -47 11 -52 -10 -5 -19 -14
-20 -153 -20 -139 0 -148 1 -153 20 -5 21 -41 28 -52 10 -5 -8 -12 -7 -22 1
-11 10 -19 10 -33 1 -12 -7 -21 -8 -25 -2 -3 6 -15 10 -25 10 -40 0 -86 193
-77 317 18 243 247 409 480 348z m47 -905 c-24 -21 -66 -51 -92 -65 l-48 -26
-48 26 c-26 14 -68 44 -92 65 l-45 39 185 0 185 0 -45 -39z"/>
<path d="M1046 1707 c6 -17 -21 -41 -36 -32 -6 4 -10 -6 -10 -24 0 -66 86 -79
119 -19 14 25 14 29 -5 55 -22 30 -79 46 -68 20z"/>
<path d="M1451 1694 c-27 -34 -26 -50 4 -79 28 -29 51 -31 83 -9 25 17 33 77
9 68 -17 -6 -41 21 -32 36 14 23 -45 9 -64 -16z"/>
<path d="M2380 350 l0 -80 65 0 c57 0 69 3 90 25 16 15 25 36 25 55 0 19 -9
40 -25 55 -21 22 -33 25 -90 25 l-65 0 0 -80z"/>
<path d="M48 367 c-21 -6 -38 -14 -38 -18 0 -5 76 -29 94 -29 3 0 6 14 6 30 0
32 -4 33 -62 17z"/>
</g>
</svg>
