<?xml version="1.0" standalone="no"?>
<!DOCTYPE svg PUBLIC "-//W3C//DTD SVG 20010904//EN"
 "http://www.w3.org/TR/2001/REC-SVG-20010904/DTD/svg10.dtd">
<svg version="1.0" xmlns="http://www.w3.org/2000/svg"
 width="512.000000pt" height="512.000000pt" viewBox="0 0 512.000000 512.000000"
 preserveAspectRatio="xMidYMid meet">
<metadata>
Created by potrace 1.11, written by Peter Selinger 2001-2013
</metadata>
<g transform="translate(0.000000,512.000000) scale(0.100000,-0.100000)"
fill="#000000" stroke="none">
<path d="M1831 5089 c-127 -63 -259 -245 -379 -519 -60 -138 -83 -192 -110
-261 -112 -281 -155 -488 -163 -772 -2 -54 1 -61 27 -83 16 -13 34 -23 41 -24
6 0 13 -4 15 -9 4 -10 78 -51 233 -129 182 -91 306 -140 455 -181 41 -12 89
-25 105 -30 47 -15 233 -49 300 -56 33 -3 74 -8 90 -10 38 -5 337 -6 389 -1
140 14 183 20 286 43 284 62 632 201 863 344 44 28 90 58 102 68 l23 17 -79
86 c-43 48 -119 118 -167 156 -153 122 -215 200 -250 314 -22 70 -27 188 -10
261 21 95 90 214 168 285 l35 32 -44 85 c-124 243 -265 392 -390 410 -57 8
-118 -10 -173 -52 -219 -169 -387 -231 -588 -220 -120 7 -147 12 -243 48 -88
32 -154 70 -242 139 -121 96 -192 110 -294 59z m227 -212 c27 -24 75 -93 85
-119 11 -31 -19 -48 -150 -82 -73 -20 -140 -40 -150 -45 -50 -27 -129 -48
-151 -40 -20 8 -23 13 -17 41 9 43 44 113 87 174 85 120 211 150 296 71z
m1396 -2 c40 -30 118 -148 139 -210 29 -88 -5 -99 -133 -44 -38 16 -111 39
-162 50 -99 23 -153 43 -163 59 -10 17 31 92 76 138 69 69 158 72 243 7z
m-1287 -685 c93 -41 162 -121 133 -155 -20 -25 -51 -17 -88 21 -73 75 -177 92
-270 45 -32 -16 -47 -19 -61 -11 -43 22 -30 60 30 91 78 39 177 43 256 9z
m1190 -7 c58 -27 77 -60 50 -87 -17 -18 -45 -14 -80 9 -14 9 -50 19 -79 22
-67 7 -139 -21 -187 -72 -36 -38 -67 -45 -86 -18 -35 48 85 151 200 172 66 11
118 4 182 -26z m-629 -274 c17 -6 33 -17 36 -26 9 -22 -21 -64 -55 -76 -16 -6
-29 -15 -29 -20 0 -16 33 -72 65 -113 34 -41 148 -124 172 -124 7 0 13 -4 13
-10 0 -17 -89 -11 -128 9 -44 23 -107 87 -117 119 -6 22 -8 21 -35 -21 -49
-77 -132 -123 -210 -115 l-35 3 55 27 c84 41 137 92 174 167 l34 66 -39 17
c-43 18 -64 54 -46 77 25 30 90 39 145 20z m-948 -44 c55 -5 151 -28 167 -40
16 -12 14 -14 -20 -20 -84 -16 -207 18 -215 59 -3 15 1 17 19 11 13 -5 35 -9
49 -10z m1790 6 c0 -6 -15 -22 -34 -36 -39 -29 -109 -41 -180 -31 -79 12 -56
22 154 64 25 5 48 10 53 11 4 0 7 -3 7 -8z m-1677 -142 c38 -6 67 -13 64 -15
-20 -20 -283 -35 -362 -20 -97 18 -102 21 -43 31 121 21 221 22 341 4z m1827
-2 c53 -10 54 -10 25 -19 -90 -27 -334 -26 -407 1 -21 8 -19 9 22 18 60 13
291 13 360 0z m-1793 -121 c6 -6 -70 -39 -122 -52 -27 -8 -74 -14 -104 -14
-45 0 -52 2 -41 14 13 16 118 53 165 58 31 3 97 -1 102 -6z m1606 -11 c40 -10
97 -41 90 -49 -9 -9 -92 -7 -139 4 -23 5 -63 19 -90 31 l-49 22 30 6 c30 7
104 0 158 -14z"/>
<path d="M4030 4593 c-48 -9 -145 -61 -187 -99 -72 -67 -116 -143 -140 -244
-8 -32 -3 -142 7 -160 6 -11 8 -20 5 -20 -8 0 41 -88 71 -127 33 -44 100 -108
241 -233 168 -148 223 -217 340 -425 83 -145 180 -370 270 -620 29 -81 31 -84
44 -65 15 23 67 199 79 265 5 33 12 71 15 85 10 50 14 76 21 145 3 39 8 78 10
88 7 41 18 290 17 412 -2 153 -18 296 -48 410 -25 99 -104 265 -152 322 -10
12 -34 40 -53 63 -63 76 -163 141 -280 182 -54 19 -203 31 -260 21z"/>
<path d="M4107 3437 c-33 -49 -151 -173 -228 -238 -103 -88 -249 -173 -432
-254 -69 -30 -271 -92 -377 -115 -58 -13 -109 -27 -114 -31 -6 -5 -2 -25 9
-49 26 -57 23 -158 -5 -233 -26 -70 -102 -151 -175 -187 -68 -33 -196 -38
-271 -9 -63 24 -135 86 -171 146 -50 87 -62 207 -28 287 17 39 11 55 -20 56
-76 4 -257 50 -376 95 -100 39 -264 122 -316 161 -17 13 -34 24 -38 24 -8 0
-158 114 -210 159 -22 20 -70 66 -107 102 -37 37 -70 64 -73 59 -7 -12 -53
-300 -60 -377 -4 -38 -8 -75 -10 -83 -22 -88 -23 -537 -1 -601 3 -8 8 -31 11
-52 3 -21 28 -100 56 -175 80 -217 89 -253 86 -356 -2 -82 -7 -100 -39 -169
-65 -136 -204 -250 -346 -283 -128 -30 -283 3 -389 83 -22 16 -33 20 -34 11
-10 -93 -12 -303 -4 -388 36 -387 176 -685 420 -894 73 -62 134 -90 240 -112
48 -10 261 -12 308 -4 23 5 56 10 72 13 74 12 252 65 298 89 19 10 19 36 3
107 -48 212 -231 386 -457 435 -58 13 -60 14 -26 16 20 1 43 3 50 4 6 1 39 -4
72 -11 179 -39 360 -140 455 -253 46 -55 106 -170 115 -221 12 -67 -14 -60
325 -86 203 -15 864 -4 912 15 29 12 47 39 54 80 2 15 23 65 46 112 32 66 58
102 117 161 132 131 282 195 466 200 91 3 101 -2 37 -16 -83 -18 -214 -83
-278 -137 -104 -87 -180 -226 -186 -338 -3 -53 4 -71 30 -81 49 -19 226 -68
267 -75 22 -3 58 -9 81 -13 22 -4 96 -7 165 -6 211 4 305 41 438 175 250 249
371 580 371 1015 1 165 -15 332 -45 494 -1 9 -6 36 -10 61 -10 65 -62 283 -86
365 -56 185 -93 301 -101 310 -4 5 -8 16 -8 25 0 37 -171 452 -283 685 -84
174 -121 241 -168 302 l-17 23 -15 -23z m-1312 -1347 c219 -50 420 -209 507
-400 30 -66 47 -110 42 -110 -3 0 0 -9 6 -19 25 -47 32 -225 13 -325 -26 -138
-76 -239 -183 -369 -66 -80 -237 -182 -360 -214 -101 -26 -285 -24 -380 6
-201 62 -360 192 -453 370 -130 247 -106 557 58 777 113 151 302 267 473 290
26 3 48 7 50 8 7 7 184 -4 227 -14z"/>
<path d="M2530 1984 c-143 -28 -299 -122 -383 -233 -144 -189 -171 -445 -67
-656 162 -332 585 -450 895 -250 105 68 176 152 230 268 154 335 -23 736 -375
849 -64 20 -241 33 -300 22z m-36 -208 c30 -13 62 -36 72 -51 16 -25 16 -30 3
-54 -16 -28 -49 -32 -101 -10 -51 21 -82 139 -37 139 5 0 33 -11 63 -24z m464
8 c48 -34 18 -94 -61 -119 -28 -10 -77 -31 -107 -47 -69 -38 -104 -44 -136
-23 -28 18 -47 59 -39 84 4 12 19 16 68 16 65 1 103 17 154 65 43 40 86 49
121 24z m-623 -174 c38 -25 91 -25 151 0 68 29 84 24 117 -37 16 -29 32 -53
37 -53 5 0 30 11 55 24 68 37 91 19 65 -50 -13 -33 1 -50 45 -57 77 -10 107
26 74 89 -30 60 -26 75 19 68 87 -14 123 -65 102 -145 -14 -50 -58 -85 -125
-100 -32 -7 -66 -22 -79 -36 -23 -23 -49 -97 -38 -108 15 -14 29 -1 41 41 8
25 20 48 27 51 22 8 44 -16 44 -48 0 -32 12 -42 55 -45 44 -2 45 -3 45 -20 0
-9 -17 -23 -40 -32 -24 -10 -43 -27 -49 -42 -12 -31 -31 -55 -51 -63 -8 -4 1
-5 20 -3 83 9 148 60 157 123 5 37 2 46 -24 72 -17 16 -43 33 -59 37 -44 11
-58 29 -38 49 30 30 145 -10 187 -66 38 -53 20 -162 -37 -212 -11 -10 -50 -33
-86 -50 -58 -28 -75 -32 -150 -32 -98 0 -133 14 -176 71 -36 46 -44 125 -19
178 20 43 18 46 -50 71 -64 23 -76 33 -73 59 2 13 -3 22 -14 24 -25 5 -23 -21
3 -44 38 -34 52 -75 50 -139 -4 -95 -4 -98 -2 -140 4 -64 3 -70 -28 -88 -38
-23 -56 -21 -81 5 -21 23 -27 85 -11 116 23 42 16 197 -9 212 -8 5 -43 -12
-88 -42 -72 -46 -111 -57 -119 -32 -2 7 22 34 54 60 68 57 191 181 204 207 12
22 2 22 -50 1 -42 -17 -92 -14 -118 8 -27 22 -42 69 -31 97 17 46 46 52 93 21z"/>
<path d="M2551 1449 c-25 -24 -22 -34 8 -24 26 8 49 45 28 45 -7 0 -23 -9 -36
-21z"/>
<path d="M2658 1329 c-16 -11 -28 -27 -28 -36 0 -12 6 -11 34 6 18 12 46 21
62 21 l29 1 -25 14 c-33 19 -40 18 -72 -6z"/>
<path d="M2708 1114 c-11 -10 4 -45 24 -55 11 -6 33 -12 49 -14 l29 -4 -20 39
c-17 32 -26 40 -49 40 -15 0 -30 -3 -33 -6z"/>
<path d="M990 3333 c-108 -97 -195 -199 -327 -387 -192 -273 -326 -540 -369
-734 -13 -61 -12 -278 1 -342 49 -227 245 -433 432 -454 165 -18 345 102 400
266 29 84 23 161 -22 283 -117 319 -127 366 -130 630 -2 173 0 227 19 395 13
118 44 331 53 368 3 12 3 22 1 22 -2 0 -28 -21 -58 -47z"/>
<path d="M2573 2861 c-78 -27 -118 -63 -149 -136 -63 -152 71 -330 235 -312
187 20 275 235 155 376 -62 72 -156 101 -241 72z"/>
</g>
</svg>
